Coordinates
version=1
nRows=40
nColumns=38
inDegrees=no

Units are S.I. units (second, meters, Newtons, ...)
If the header above contains a line with 'inDegrees', this indicates whether rotational values are in degrees (yes) or radians (no).

endheader
time	pelvis_tilt	pelvis_list	pelvis_rotation	pelvis_tx	pelvis_ty	pelvis_tz	hip_flexion_r	hip_adduction_r	hip_rotation_r	knee_angle_r	ankle_angle_r	subtalar_angle_r	mtp_angle_r	hip_flexion_l	hip_adduction_l	hip_rotation_l	knee_angle_l	ankle_angle_l	subtalar_angle_l	mtp_angle_l	lumbar_extension	lumbar_bending	lumbar_rotation	arm_flex_r	arm_add_r	arm_rot_r	elbow_flex_r	pro_sup_r	wrist_flex_r	wrist_dev_r	arm_flex_l	arm_add_l	arm_rot_l	elbow_flex_l	pro_sup_l	wrist_flex_l	wrist_dev_l
0.98	0.408055	1.51384	-1.93867	0.727533	0.504785	1.03075	0.447128	-0.000984209	0.0393569	0.923238	-0.130219	0	0	-0.102056	0.0743506	-0.327344	0.396997	-0.13801	0	0	-0.401356	0.00403381	-0.00481097	0.047104	-0.342844	0.947079	0.374161	0.794562	0	0	-0.00239958	-0.271758	0.554041	0.397147	1.14403	0	0
0.99	0.410197	1.51894	-1.93988	0.727903	0.495543	1.02997	0.455982	-0.00327235	0.0268611	0.874508	-0.126728	0	0	-0.109806	0.0728464	-0.326178	0.390614	-0.136131	0	0	-0.394791	0.00597479	-0.00350055	0.047122	-0.344668	0.952208	0.373375	0.790219	0	0	-0.000893485	-0.270405	0.563565	0.395075	1.13349	0	0
1	0.409862	1.52381	-1.93828	0.728249	0.486208	1.02907	0.463965	-0.00516649	0.0127594	0.825192	-0.125136	0	0	-0.117757	0.0709532	-0.325051	0.38484	-0.13352	0	0	-0.388373	0.00785075	-0.00245936	0.0466849	-0.346567	0.956725	0.373155	0.785444	0	0	-5.93714e-05	-0.269392	0.572215	0.393339	1.1235	0	0
1.01	0.411231	1.52829	-1.93815	0.728576	0.476812	1.02809	0.471246	-0.00693177	-0.0023649	0.776132	-0.126108	0	0	-0.126051	0.069159	-0.323414	0.37948	-0.131205	0	0	-0.382328	0.00950819	-0.00173425	0.0460327	-0.348574	0.961454	0.373147	0.781194	0	0	0.000913241	-0.268051	0.580433	0.390944	1.11432	0	0
1.02	0.419349	1.53229	-1.94452	0.728897	0.467376	1.02703	0.477951	-0.00902278	-0.0178724	0.728262	-0.129983	0	0	-0.134753	0.0676906	-0.321736	0.374285	-0.129548	0	0	-0.376897	0.0108981	-0.00152017	0.0454416	-0.350388	0.965599	0.372857	0.776812	0	0	0.00204882	-0.266373	0.588282	0.388192	1.10596	0	0
1.03	0.4366	1.53623	-1.95921	0.729217	0.457851	1.02588	0.484348	-0.0116168	-0.0338492	0.682008	-0.136499	0	0	-0.143451	0.0660954	-0.31998	0.369258	-0.128036	0	0	-0.371589	0.01229	-0.0021386	0.044825	-0.351545	0.969217	0.371625	0.77252	0	0	0.00318837	-0.264518	0.595802	0.385099	1.09829	0	0
1.04	0.461613	1.53993	-1.98122	0.729507	0.448316	1.02465	0.490221	-0.0143291	-0.0487033	0.638114	-0.144777	0	0	-0.152324	0.0642899	-0.31817	0.364422	-0.126581	0	0	-0.366776	0.0135412	-0.00303088	0.044202	-0.352287	0.972606	0.369971	0.768635	0	0	0.00379056	-0.263249	0.602615	0.382921	1.09118	0	0
1.05	0.498616	1.54354	-2.01489	0.729801	0.438781	1.02333	0.495764	-0.0167897	-0.0623089	0.596895	-0.153426	0	0	-0.161297	0.0624746	-0.315803	0.359383	-0.12542	0	0	-0.362363	0.0146384	-0.00433822	0.0436708	-0.35283	0.97558	0.368093	0.764971	0	0	0.0038936	-0.262453	0.608798	0.381634	1.08496	0	0
1.06	0.553092	1.54747	-2.06553	0.730107	0.42919	1.02191	0.501432	-0.0186242	-0.0748279	0.558671	-0.161122	0	0	-0.169967	0.0604182	-0.31306	0.354155	-0.124048	0	0	-0.357758	0.0160097	-0.00630765	0.0431237	-0.353322	0.978371	0.366029	0.761776	0	0	0.00440858	-0.260798	0.614933	0.379066	1.07998	0	0
1.07	0.636201	1.55115	-2.14434	0.730444	0.419573	1.02041	0.507547	-0.0208243	-0.0852314	0.525435	-0.165739	0	0	-0.178754	0.0583557	-0.310643	0.349009	-0.12296	0	0	-0.353922	0.0173982	-0.00879623	0.0426069	-0.353903	0.979891	0.364335	0.759523	0	0	0.00540846	-0.258407	0.619648	0.375765	1.07776	0	0
1.08	0.727089	1.55451	-2.23018	0.730815	0.409911	1.0189	0.512463	-0.0228351	-0.0936848	0.494269	-0.169169	0	0	-0.18805	0.0559635	-0.307429	0.343765	-0.121818	0	0	-0.35085	0.0193524	-0.011437	0.0420417	-0.354481	0.981435	0.362312	0.757699	0	0	0.00679388	-0.25558	0.623871	0.371793	1.07598	0	0
1.09	0.830181	1.55765	-2.3279	0.731156	0.400205	1.01733	0.516537	-0.0243253	-0.0997196	0.466427	-0.170987	0	0	-0.197443	0.0531122	-0.304401	0.338983	-0.120664	0	0	-0.348376	0.0216193	-0.0139474	0.0414231	-0.35513	0.983161	0.360285	0.756108	0	0	0.00814883	-0.252815	0.627764	0.367969	1.07437	0	0
1.1	0.965088	1.56064	-2.45727	0.731457	0.39043	1.01575	0.519841	-0.0253732	-0.103531	0.442095	-0.171274	0	0	-0.206845	0.0499282	-0.301341	0.33445	-0.119577	0	0	-0.346372	0.0240449	-0.0161953	0.0405453	-0.355903	0.984539	0.358569	0.754497	0	0	0.00931106	-0.250556	0.631519	0.364677	1.07386	0	0
1.11	1.17276	1.5634	-2.65901	0.731727	0.380566	1.01414	0.522312	-0.0261761	-0.104632	0.421603	-0.170665	0	0	-0.216343	0.0463118	-0.297601	0.33001	-0.118461	0	0	-0.344689	0.0266252	-0.0181926	0.0392811	-0.356656	0.985646	0.357022	0.752614	0	0	0.0104017	-0.248575	0.634987	0.361882	1.07396	0	0
1.12	1.48302	1.56562	-2.9635	0.731907	0.370596	1.01254	0.52397	-0.0266141	-0.102642	0.405929	-0.169186	0	0	-0.226255	0.0424407	-0.294204	0.325978	-0.117431	0	0	-0.343644	0.0293587	-0.0197434	0.0377712	-0.357579	0.986394	0.35608	0.750318	0	0	0.0114328	-0.246617	0.638265	0.35977	1.07489	0	0
1.13	2.09989	1.56693	2.70834	0.73198	0.36047	1.0109	0.526174	-0.0267726	-0.0982449	0.397685	-0.167252	0	0	-0.235995	0.0382255	-0.29186	0.322858	-0.116771	0	0	-0.342679	0.0322527	-0.020964	0.035925	-0.358755	0.986745	0.355694	0.748552	0	0	0.0121581	-0.244592	0.641022	0.358338	1.07654	0	0
1.14	2.77307	1.56643	2.04031	0.73197	0.350219	1.00929	0.528488	-0.0263957	-0.0911714	0.396155	-0.164601	0	0	-0.246574	0.0340033	-0.289507	0.318931	-0.116431	0	0	-0.342055	0.0351652	-0.0218669	0.0338899	-0.360134	0.986769	0.355674	0.746732	0	0	0.0128479	-0.242342	0.643721	0.356734	1.07873	0	0
1.15	-3.0819	1.56523	1.61693	0.731813	0.339809	1.00771	0.530944	-0.0252878	-0.0821824	0.402351	-0.160225	0	0	-0.25821	0.0297039	-0.286313	0.313975	-0.116243	0	0	-0.341968	0.038167	-0.0217232	0.0311224	-0.361865	0.986412	0.35649	0.743615	0	0	0.0132822	-0.240332	0.645904	0.355454	1.08095	0	0
1.16	-2.82616	1.5634	1.36583	0.731496	0.329204	1.00609	0.534708	-0.0237805	-0.0746094	0.417208	-0.155071	0	0	-0.269647	0.0250567	-0.283869	0.30957	-0.116544	0	0	-0.342052	0.0410432	-0.0211773	0.0278448	-0.363668	0.985762	0.358014	0.738635	0	0	0.0125598	-0.239212	0.646096	0.356325	1.08232	0	0
1.17	-2.65264	1.56083	1.19676	0.731051	0.318398	1.00445	0.539086	-0.0212609	-0.0685149	0.437258	-0.153127	0	0	-0.28024	0.0196217	-0.282461	0.3063	-0.117307	0	0	-0.341672	0.0444444	-0.0212951	0.0248408	-0.365022	0.985711	0.358733	0.735032	0	0	0.0110679	-0.238277	0.645812	0.357525	1.08401	0	0
1.18	-2.51997	1.55796	1.06831	0.730468	0.307388	1.00281	0.543059	-0.017465	-0.0638089	0.461005	-0.154165	0	0	-0.290555	0.0134844	-0.281533	0.303963	-0.118288	0	0	-0.34136	0.0482877	-0.021895	0.0220533	-0.366015	0.985697	0.359079	0.732824	0	0	0.00944325	-0.237286	0.646493	0.357659	1.08701	0	0
1.19	-2.40176	1.55486	0.954295	0.729762	0.296141	1.00117	0.546046	-0.0123466	-0.0610433	0.487474	-0.158468	0	0	-0.300821	0.00654357	-0.280946	0.302582	-0.119485	0	0	-0.341165	0.0523765	-0.0225559	0.0189065	-0.366816	0.985364	0.359676	0.730932	0	0	0.00733473	-0.236757	0.648263	0.356936	1.09266	0	0
1.2	-2.29381	1.55103	0.850683	0.728956	0.284662	0.99957	0.548199	-0.00585762	-0.0603496	0.514082	-0.167244	0	0	-0.310506	-0.00151151	-0.280639	0.302678	-0.1208	0	0	-0.340697	0.0570344	-0.0229175	0.0150692	-0.367565	0.984503	0.360499	0.729306	0	0	0.00444425	-0.236639	0.649301	0.356301	1.09962	0	0
1.21	-2.21854	1.54564	0.779717	0.728024	0.272985	0.998134	0.551618	0.00132599	-0.0627697	0.536938	-0.184754	0	0	-0.318352	-0.0108757	-0.280004	0.304604	-0.122612	0	0	-0.339361	0.0632192	-0.02328	0.0109686	-0.368417	0.982493	0.361515	0.727584	0	0	0.000919836	-0.235778	0.645159	0.357383	1.10243	0	0
1.22	-2.13314	1.53911	0.698262	0.726961	0.261292	0.997073	0.555419	0.00902669	-0.0676137	0.551984	-0.206361	0	0	-0.32504	-0.0219703	-0.279232	0.308904	-0.124978	0	0	-0.338935	0.0709163	-0.0235037	0.00786709	-0.369103	0.980951	0.361997	0.727128	0	0	-0.00223324	-0.234556	0.640982	0.357684	1.1054	0	0
1.23	-2.04101	1.53131	0.609634	0.725881	0.249561	0.996447	0.558083	0.0184715	-0.0734694	0.56329	-0.22094	0	0	-0.330868	-0.0348877	-0.278204	0.315579	-0.128078	0	0	-0.339648	0.0804639	-0.0228652	0.00551472	-0.369952	0.979469	0.362034	0.727119	0	0	-0.00480993	-0.232722	0.638145	0.356738	1.10968	0	0
1.24	-1.95174	1.52287	0.522801	0.724836	0.237761	0.996258	0.55873	0.0296749	-0.0774674	0.577153	-0.230406	0	0	-0.336443	-0.0483569	-0.276865	0.324552	-0.131968	0	0	-0.341891	0.090945	-0.0211034	0.00388616	-0.371294	0.978162	0.362049	0.727225	0	0	-0.0071378	-0.230237	0.635775	0.355059	1.11479	0	0
1.25	-1.86972	1.51463	0.441309	0.723728	0.225871	0.996539	0.55766	0.0416825	-0.0778111	0.595765	-0.238217	0	0	-0.341691	-0.0611859	-0.276243	0.3373	-0.137857	0	0	-0.345892	0.10114	-0.0176736	0.00264587	-0.373641	0.977084	0.363155	0.727936	0	0	-0.00946479	-0.226976	0.631042	0.353148	1.12177	0	0
1.26	-1.8156	1.50692	0.38637	0.722461	0.21394	0.99715	0.556361	0.0532034	-0.0721412	0.61643	-0.241812	0	0	-0.344386	-0.0728708	-0.277055	0.355234	-0.145181	0	0	-0.350079	0.110389	-0.0141893	0.00194281	-0.376301	0.976083	0.364922	0.729341	0	0	-0.0128839	-0.224116	0.621515	0.354518	1.12741	0	0
1.27	-1.7556	1.50086	0.32452	0.721022	0.202037	0.998159	0.552222	0.0638665	-0.0604646	0.636597	-0.243208	0	0	-0.346307	-0.0832279	-0.279177	0.378032	-0.153224	0	0	-0.356483	0.117739	-0.0110382	0.00243101	-0.378164	0.975815	0.366036	0.730844	0	0	-0.0162506	-0.222055	0.612546	0.356118	1.13369	0	0
1.28	-1.68688	1.49594	0.254021	0.719502	0.190094	0.999537	0.543966	0.0737685	-0.0483284	0.654066	-0.241188	0	0	-0.34682	-0.0931145	-0.280682	0.406347	-0.162689	0	0	-0.364462	0.123557	-0.00835031	0.00335453	-0.379118	0.976228	0.366361	0.732356	0	0	-0.0191316	-0.220225	0.604419	0.356213	1.14039	0	0
1.29	-1.61212	1.49165	0.177878	0.717978	0.178115	1.00127	0.531714	0.0825893	-0.0426392	0.666843	-0.234797	0	0	-0.345192	-0.10282	-0.280136	0.440468	-0.174095	0	0	-0.373504	0.128199	-0.00611031	0.00434583	-0.379604	0.977125	0.36659	0.733979	0	0	-0.021673	-0.218642	0.595635	0.355495	1.14842	0	0
1.3	-1.54748	1.48774	0.112065	0.716491	0.166124	1.00319	0.517585	0.0897912	-0.0455184	0.673785	-0.227911	0	0	-0.339767	-0.111735	-0.275017	0.480284	-0.185927	0	0	-0.381634	0.131719	-0.00403133	0.00470486	-0.380078	0.978006	0.367366	0.73506	0	0	-0.0239874	-0.217452	0.587903	0.35446	1.15494	0	0
1.31	-1.50935	1.48434	0.0719661	0.714944	0.154198	1.00501	0.504157	0.0958519	-0.0530117	0.675761	-0.222226	0	0	-0.32871	-0.119134	-0.264944	0.525761	-0.198061	0	0	-0.386954	0.13382	-0.00135143	0.00401747	-0.381091	0.978565	0.369486	0.735557	0	0	-0.0266759	-0.217023	0.581599	0.354398	1.15998	0	0
1.32	-1.52868	1.48119	0.0901024	0.713269	0.142289	1.00637	0.495306	0.101077	-0.0625969	0.675156	-0.217128	0	0	-0.308076	-0.125919	-0.248752	0.576525	-0.209025	0	0	-0.385551	0.135345	0.000593243	0.00177395	-0.381498	0.978932	0.371047	0.736376	0	0	-0.0303477	-0.217542	0.57773	0.355085	1.1617	0	0
1.33	-1.58954	1.47765	0.149544	0.711512	0.130573	1.00726	0.490824	0.106924	-0.0723523	0.674781	-0.210263	0	0	-0.279344	-0.131974	-0.228206	0.631646	-0.221108	0	0	-0.378816	0.136906	0.00247714	-0.00140518	-0.38234	0.979056	0.373199	0.737514	0	0	-0.0352734	-0.218741	0.574528	0.357373	1.16268	0	0
1.34	-1.65759	1.47256	0.215895	0.709802	0.11917	1.00799	0.487372	0.11459	-0.0804189	0.67448	-0.20247	0	0	-0.246333	-0.137761	-0.20458	0.689215	-0.232417	0	0	-0.370257	0.139685	0.00514096	-0.00470015	-0.384086	0.979033	0.375919	0.738915	0	0	-0.0407443	-0.220465	0.572129	0.36156	1.16367	0	0
1.35	-1.70824	1.46583	0.26448	0.708208	0.108099	1.00879	0.482144	0.124145	-0.0845776	0.673016	-0.194917	0	0	-0.212401	-0.143746	-0.17971	0.747718	-0.238552	0	0	-0.362882	0.143868	0.00894579	-0.00745724	-0.386952	0.979345	0.379355	0.74069	0	0	-0.0455362	-0.221977	0.571081	0.365749	1.16586	0	0
1.36	-1.74353	1.45938	0.296972	0.706726	0.0972826	1.00958	0.475916	0.133592	-0.0837087	0.672678	-0.187581	0	0	-0.179089	-0.14836	-0.155007	0.806449	-0.232849	0	0	-0.357029	0.147663	0.0136328	-0.0100249	-0.390944	0.979722	0.384275	0.742603	0	0	-0.0497154	-0.22329	0.570599	0.369727	1.16867	0	0
1.37	-1.7702	1.454	0.320129	0.705321	0.0865737	1.01033	0.468623	0.143005	-0.0791965	0.672441	-0.178108	0	0	-0.146569	-0.150954	-0.131957	0.865496	-0.213581	0	0	-0.352162	0.1505	0.0187558	-0.0129003	-0.395994	0.97971	0.391033	0.745076	0	0	-0.0545021	-0.225	0.568101	0.376376	1.16908	0	0
